<?xml version="1.0" encoding="UTF-8" standalone="no"?>
<!-- Created with Inkscape (http://www.inkscape.org/) -->

<svg
   width="10mm"
   height="10mm"
   viewBox="0 0 10 10"
   version="1.1"
   id="svg869"
   xmlns:xlink="http://www.w3.org/1999/xlink"
   xmlns="http://www.w3.org/2000/svg"
   xmlns:svg="http://www.w3.org/2000/svg">
  <defs
     id="defs866">
    <linearGradient
       id="linearGradient1306">
      <stop
         style="stop-color:#420b42;stop-opacity:1;"
         offset="0"
         id="stop1302" />
      <stop
         style="stop-color:#072d5d;stop-opacity:1"
         offset="1"
         id="stop1304" />
    </linearGradient>
    <linearGradient
       xlink:href="#linearGradient1306"
       id="linearGradient1308"
       x1="1.3711836"
       y1="1.4751128"
       x2="11.390544"
       y2="12.162704"
       gradientUnits="userSpaceOnUse"
       spreadMethod="pad"
       gradientTransform="matrix(1,0,0,1.0081358,0,-0.08239179)" />
  </defs>
  <g
     id="layer1">
    <rect
       style="fill:url(#linearGradient1308);fill-opacity:1;stroke:none;stroke-width:2.65657;stroke-linejoin:round;paint-order:stroke markers fill"
       id="rect1001"
       width="10.024968"
       height="10.078892"
       x="0.081002459"
       y="0.048151981" />
    <g
       id="SvgjsG1736"
       featurekey="inlineSymbolFeature-0"
       transform="matrix(0.10313416,0,0,0.10313416,0.02841622,6.4383523e-4)"
       fill="#111111"
       style="fill:#78a7d3;fill-opacity:1">
      <path
         d="M 50,18.3125 C 32.527344,18.3125 18.3125,32.527344 18.3125,50 18.3125,67.472656 32.527344,81.6875 50,81.6875 67.472656,81.6875 81.6875,67.472656 81.6875,50 81.6875,32.527344 67.472656,18.3125 50,18.3125 Z m 0,61.375 C 33.629883,79.6875 20.3125,66.370117 20.3125,50 20.3125,33.629883 33.629883,20.3125 50,20.3125 66.370117,20.3125 79.6875,33.629883 79.6875,50 79.6875,66.370117 66.370117,79.6875 50,79.6875 Z"
         id="path6"
         style="fill:#78a7d3;fill-opacity:1" />
      <path
         d="m 50,24.164062 c -3.726563,0 -6.758789,3.032227 -6.758789,6.75879 0,3.726562 3.032226,6.757812 6.758789,6.757812 3.726562,0 6.758789,-3.03125 6.758789,-6.757812 0,-3.726563 -3.032227,-6.75879 -6.758789,-6.75879 z m 0,11.516602 c -2.624023,0 -4.758789,-2.134766 -4.758789,-4.757812 0,-2.624024 2.134765,-4.75879 4.758789,-4.75879 2.624023,0 4.758789,2.134766 4.758789,4.75879 0,2.623046 -2.134766,4.757812 -4.758789,4.757812 z"
         id="path8"
         style="fill:#78a7d3;fill-opacity:1" />
      <path
         d="m 36.723633,34.556641 c -1.563477,-0.902344 -3.384766,-1.142579 -5.128906,-0.674805 -1.743165,0.466797 -3.201172,1.584961 -4.103516,3.148437 -0.902344,1.563477 -1.142578,3.384766 -0.674805,5.128907 0.466797,1.743164 1.584961,3.201171 3.148438,4.103515 1.041015,0.600586 2.197265,0.908203 3.368164,0.908203 0.586914,0 1.177734,-0.07715 1.759765,-0.233398 1.744141,-0.466797 3.202149,-1.584961 4.104493,-3.148438 1.862304,-3.227539 0.752929,-7.36914 -2.473633,-9.232421 z m 0.741211,8.232421 c -0.634766,1.100586 -1.661133,1.887696 -2.888672,2.216797 -1.226563,0.327149 -2.509766,0.161133 -3.611328,-0.475586 -1.100586,-0.634765 -1.887696,-1.661132 -2.216797,-2.889648 -0.329102,-1.227539 -0.160156,-2.509766 0.475586,-3.610352 0.635742,-1.100586 1.661133,-1.887695 2.888672,-2.216796 0.410156,-0.110352 0.826172,-0.164063 1.239257,-0.164063 0.825196,0 1.638672,0.21582 2.372071,0.639648 2.271484,1.311524 3.052734,4.22754 1.741211,6.5 z"
         id="path10"
         style="fill:#78a7d3;fill-opacity:1" />
      <path
         d="m 34.981445,53.049805 c -1.746094,-0.467774 -3.566406,-0.228516 -5.128906,0.674804 -1.563477,0.902344 -2.681641,2.360352 -3.148437,4.103516 -0.467774,1.744141 -0.22754,3.56543 0.674804,5.128906 1.25,2.166016 3.526367,3.376953 5.864258,3.376953 1.145508,0 2.306641,-0.291015 3.368164,-0.90332 1.563477,-0.902344 2.681641,-2.360352 3.148438,-4.104492 0.466797,-1.743164 0.227539,-3.564453 -0.674805,-5.12793 -0.902344,-1.563477 -2.360352,-2.68164 -4.103516,-3.148437 z m 2.84668,7.759765 c -0.329102,1.227539 -1.116211,2.253906 -2.216797,2.888672 -2.271484,1.313477 -5.188477,0.530274 -6.5,-1.741211 -0.635742,-1.100586 -0.804687,-2.383789 -0.475586,-3.611328 0.329102,-1.227539 1.116211,-2.25293 2.216797,-2.888672 0.733398,-0.423828 1.546875,-0.639648 2.371094,-0.639648 0.414062,0 0.830078,0.05371 1.239258,0.164062 1.228515,0.329102 2.254882,1.116211 2.889648,2.216797 0.635742,1.100586 0.804688,2.382813 0.475586,3.611328 z"
         id="path12"
         style="fill:#78a7d3;fill-opacity:1" />
      <path
         d="m 49.775391,62.5 c -3.726563,0 -6.757813,3.032227 -6.757813,6.758789 0,3.726563 3.03125,6.757813 6.757813,6.757813 3.726562,0 6.758789,-3.03125 6.758789,-6.757813 C 56.53418,65.532227 53.501953,62.5 49.775391,62.5 Z m 0,11.516602 c -2.623047,0 -4.757813,-2.134766 -4.757813,-4.757813 0,-2.624023 2.134766,-4.758789 4.757813,-4.758789 2.624023,0 4.758789,2.134766 4.758789,4.758789 0,2.623047 -2.134766,4.757813 -4.758789,4.757813 z"
         id="path14"
         style="fill:#78a7d3;fill-opacity:1" />
      <path
         d="m 69.810547,53.918945 c -1.563477,-0.902344 -3.384766,-1.142578 -5.12793,-0.674804 -1.743164,0.466796 -3.201172,1.58496 -4.103515,3.148437 -0.902344,1.563477 -1.142578,3.384766 -0.675782,5.12793 0.467774,1.74414 1.585938,3.202148 3.149415,4.104492 1.041015,0.600586 2.197265,0.908203 3.368163,0.908203 0.586914,0 1.177735,-0.07715 1.759766,-0.233398 1.744141,-0.466797 3.202148,-1.584961 4.104492,-3.148438 1.862305,-3.228515 0.75293,-7.36914 -2.474609,-9.232422 z m 0.742187,8.232422 c -0.634765,1.100586 -1.661132,1.887695 -2.888672,2.216797 -1.225585,0.327148 -2.509765,0.161133 -3.611328,-0.475586 -1.100585,-0.634765 -1.888671,-1.661133 -2.217773,-2.888672 -0.328125,-1.228515 -0.15918,-2.510742 0.476563,-3.611328 0.635742,-1.100586 1.661132,-1.887695 2.888671,-2.216797 0.410157,-0.110351 0.826172,-0.164062 1.239258,-0.164062 0.824219,0 1.637696,0.21582 2.371094,0.639648 1.101563,0.634766 1.888672,1.661133 2.217773,2.888672 0.329102,1.227539 0.160157,2.510742 -0.475586,3.611328 z"
         id="path16"
         style="fill:#78a7d3;fill-opacity:1" />
      <path
         d="m 63.165039,34.750977 c -1.563477,0.902343 -2.681641,2.360351 -3.149414,4.103515 -0.466797,1.743164 -0.227539,3.564453 0.674805,5.12793 1.250976,2.166016 3.527344,3.37793 5.865234,3.37793 1.145508,0 2.305664,-0.291016 3.367188,-0.903321 1.563476,-0.902343 2.68164,-2.360351 3.149414,-4.103515 0.466797,-1.744141 0.227539,-3.56543 -0.674805,-5.128906 -0.90332,-1.563477 -2.360352,-2.682618 -4.104492,-3.149415 -1.743164,-0.467773 -3.56543,-0.227539 -5.12793,0.675782 z m 7.5,3.473632 c 0.635742,1.100586 0.804688,2.382813 0.475586,3.610352 -0.329102,1.228516 -1.117188,2.254883 -2.217773,2.889648 -2.271485,1.3125 -5.188477,0.530274 -6.5,-1.742187 -0.635743,-1.100586 -0.804688,-2.382813 -0.475586,-3.610352 0.329101,-1.227539 1.117187,-2.253906 2.217773,-2.888672 0.733398,-0.423828 1.546875,-0.640625 2.37207,-0.640625 0.413086,0 0.829102,0.05469 1.238282,0.164063 1.227539,0.329101 2.253906,1.117187 2.889648,2.217773 z"
         id="path18"
         style="fill:#78a7d3;fill-opacity:1" />
      <path
         d="M 50,10 C 27.944336,10 10,27.944336 10,50 10,67.702881 21.564819,82.747559 37.532715,88 H 11 c -0.552734,0 -1,0.447266 -1,1 0,0.552734 0.447266,1 1,1 h 38.033203 c 0.03833,0 0.0708,-0.01758 0.107971,-0.02173 C 49.427734,89.984375 49.711975,90 50,90 72.055664,90 90,72.055664 90,50 90,27.944336 72.055664,10 50,10 Z m 0,78 C 29.046875,88 12,70.953125 12,50 12,29.046875 29.046875,12 50,12 70.953125,12 88,29.046875 88,50 88,70.953125 70.953125,88 50,88 Z"
         id="path20"
         style="fill:#78a7d3;fill-opacity:1" />
      <path
         d="m 49.887695,55.939453 c 3.225586,0 5.84961,-2.624023 5.84961,-5.848633 0,-3.225586 -2.624024,-5.849609 -5.84961,-5.849609 -3.225586,0 -5.849609,2.624023 -5.849609,5.849609 0,3.22461 2.624023,5.848633 5.849609,5.848633 z m 0,-9.698242 c 2.123047,0 3.84961,1.726562 3.84961,3.849609 0,2.122071 -1.726563,3.848633 -3.84961,3.848633 -2.123047,0 -3.849609,-1.726562 -3.849609,-3.848633 0,-2.123047 1.726562,-3.849609 3.849609,-3.849609 z"
         id="path22"
         style="fill:#78a7d3;fill-opacity:1" />
    </g>
    <g
       id="g24147">
      <path
         style="color:#000000;fill:#78a7d3;stroke-linejoin:round;-inkscape-stroke:none;paint-order:stroke markers fill"
         d="M 5.2167969,1.1015625 C 3.0268157,1.1015625 1.25,2.9187911 1.25,5.1386719 c 0,2.2198808 1.7768157,4.0371094 3.9667969,4.0371094 2.1899811,0 3.9648437,-1.8172286 3.9648437,-4.0371094 0,-2.2198808 -1.7748626,-4.0371094 -3.9648437,-4.0371094 z m 0,0.8828125 c 1.7034548,0 3.0820312,1.4017966 3.0820312,3.1542969 0,1.7525002 -1.3785764,3.15625 -3.0820312,3.15625 -1.7034548,0 -3.0839844,-1.4037498 -3.0839844,-3.15625 0,-1.7525003 1.3805296,-3.1542969 3.0839844,-3.1542969 z"
         id="path1800" />
      <ellipse
         style="fill:#78a7d3;fill-opacity:1;stroke:none;stroke-width:1.29994;stroke-linejoin:round;stroke-miterlimit:4;stroke-dasharray:none;stroke-opacity:1;paint-order:stroke markers fill"
         id="path18700"
         cx="5.1862183"
         cy="3.2148013"
         rx="0.55557114"
         ry="0.58656728" />
      <ellipse
         style="fill:#78a7d3;fill-opacity:1;stroke:none;stroke-width:1.28867;stroke-linejoin:round;stroke-miterlimit:4;stroke-dasharray:none;stroke-opacity:1;paint-order:stroke markers fill"
         id="path18700-7"
         cx="5.1834035"
         cy="5.1731687"
         rx="0.55557114"
         ry="0.57643956" />
      <ellipse
         style="fill:#78a7d3;fill-opacity:1;stroke:none;stroke-width:1.28867;stroke-linejoin:round;stroke-miterlimit:4;stroke-dasharray:none;stroke-opacity:1;paint-order:stroke markers fill"
         id="path18700-7-5"
         cx="3.4716017"
         cy="4.1861529"
         rx="0.55557114"
         ry="0.57643956" />
      <ellipse
         style="fill:#78a7d3;fill-opacity:1;stroke:none;stroke-width:1.28867;stroke-linejoin:round;stroke-miterlimit:4;stroke-dasharray:none;stroke-opacity:1;paint-order:stroke markers fill"
         id="path18700-7-3"
         cx="3.4472537"
         cy="6.1269436"
         rx="0.55557114"
         ry="0.57643956" />
      <ellipse
         style="fill:#78a7d3;fill-opacity:1;stroke:none;stroke-width:1.28867;stroke-linejoin:round;stroke-miterlimit:4;stroke-dasharray:none;stroke-opacity:1;paint-order:stroke markers fill"
         id="path18700-7-56"
         cx="5.1567793"
         cy="7.1395411"
         rx="0.55557114"
         ry="0.57643956" />
      <ellipse
         style="fill:#78a7d3;fill-opacity:1;stroke:none;stroke-width:1.28867;stroke-linejoin:round;stroke-miterlimit:4;stroke-dasharray:none;stroke-opacity:1;paint-order:stroke markers fill"
         id="path18700-7-2"
         cx="6.8834548"
         cy="6.1705842"
         rx="0.55557114"
         ry="0.57643956" />
      <ellipse
         style="fill:#78a7d3;fill-opacity:1;stroke:none;stroke-width:1.28867;stroke-linejoin:round;stroke-miterlimit:4;stroke-dasharray:none;stroke-opacity:1;paint-order:stroke markers fill"
         id="path18700-7-9"
         cx="6.9150162"
         cy="4.1771045"
         rx="0.55557114"
         ry="0.57643956" />
    </g>
  </g>
</svg>
